<svg id="Layer_1" data-name="Layer 1" xmlns="http://www.w3.org/2000/svg" viewBox="0 0 900 900">
	<title>
		user-inviteme-x
	</title>
	<path d="M391.5,185a120,120,0,1,1-84.85,35.15A119.19,119.19,0,0,1,391.5,185m0-40a160,160,0,1,0,160,160,160,160,0,0,0-160-160Z" />
	<path d="M391.5,544a267,267,0,0,1,99.93,19.12A255.69,255.69,0,0,1,572.56,615a239,239,0,0,1,54.22,76.27A226.68,226.68,0,0,1,643,744H140a226.68,226.68,0,0,1,16.21-52.71A239,239,0,0,1,210.44,615a255.69,255.69,0,0,1,81.13-51.9A267,267,0,0,1,391.5,544m0-40c-162.92,0-295,125.36-295,280h590c0-154.64-132.08-280-295-280Z" />
	<line style="fill:none;stroke:#000;stroke-miterlimit:10;stroke-width:40px;" x1="634.25" y1="143.29" x2="775.67" y2="284.71" />
	<line style="fill:none;stroke:#000;stroke-miterlimit:10;stroke-width:40px;" x1="775.67" y1="143.29" x2="634.25" y2="284.71" />
</svg>
