<svg width="900" height="900" viewBox="0 0 900 900" fill="none" xmlns="http://www.w3.org/2000/svg">
<path d="M391.5 185C419.263 184.999 446.167 194.624 467.629 212.235C489.09 229.847 503.781 254.355 509.199 281.584C514.616 308.813 510.425 337.078 497.338 361.563C484.252 386.048 463.081 405.238 437.432 415.864C411.783 426.489 383.243 427.892 356.676 419.834C330.108 411.776 307.157 394.755 291.732 371.672C276.307 348.589 269.363 320.871 272.083 293.242C274.803 265.613 287.019 239.782 306.65 220.15C317.766 208.971 330.989 200.108 345.553 194.074C360.118 188.041 375.735 184.956 391.5 185V185ZM391.5 145C359.855 145 328.921 154.384 302.609 171.965C276.297 189.546 255.789 214.534 243.679 243.771C231.569 273.007 228.401 305.177 234.574 336.214C240.748 367.251 255.986 395.761 278.363 418.137C300.739 440.513 329.249 455.752 360.286 461.926C391.322 468.099 423.493 464.931 452.729 452.821C481.965 440.711 506.954 420.203 524.535 393.891C542.116 367.579 551.5 336.645 551.5 305C551.5 262.565 534.643 221.869 504.637 191.863C474.631 161.857 433.935 145 391.5 145V145Z" fill="black"/>
<path d="M391.5 544C425.728 543.909 459.653 550.4 491.43 563.12C521.515 575.119 549.047 592.724 572.56 615C595.483 636.602 613.909 662.522 626.78 691.27C634.313 708.121 639.76 725.829 643 744H140C143.238 725.836 148.682 708.135 156.21 691.29C169.082 662.534 187.512 636.607 210.44 615C233.952 592.717 261.483 575.105 291.57 563.1C323.348 550.387 357.274 543.903 391.5 544V544ZM391.5 504C228.58 504 96.5 629.36 96.5 784H686.5C686.5 629.36 554.42 504 391.5 504Z" fill="black"/>
<path d="M105.004 148.68C95.4983 139.883 83.0565 135 70.1434 135C63.3086 135.007 56.5427 136.375 50.2351 139.024C43.9274 141.673 38.2026 145.552 33.3899 150.436C12.8628 171.185 12.8715 203.639 33.4074 224.3L97.3705 288.68C98.8535 291.305 101.715 293 105.004 293C106.354 292.987 107.683 292.655 108.883 292.031C110.083 291.408 111.121 290.509 111.913 289.409L176.6 224.3C197.136 203.63 197.136 171.185 176.583 150.401C171.773 145.526 166.052 141.655 159.751 139.012C153.449 136.369 146.691 135.005 139.864 135C126.951 135.002 114.51 139.884 105.004 148.68V148.68ZM164.247 162.817C177.883 176.612 177.891 198.16 164.265 211.884L105.004 271.531L45.7429 211.884C32.1162 198.16 32.125 176.612 45.7254 162.852C52.3555 156.214 61.027 152.561 70.1434 152.561C79.2598 152.561 87.8964 156.214 94.4742 162.835L98.8361 167.225C99.6455 168.041 100.607 168.689 101.665 169.131C102.724 169.572 103.858 169.8 105.004 169.8C106.15 169.8 107.284 169.572 108.342 169.131C109.401 168.689 110.362 168.041 111.172 167.225L115.533 162.835C128.724 149.585 151.074 149.62 164.247 162.817V162.817Z" fill="black"/>
<path d="M105.503 159.516C97.4727 152.11 86.9615 148 76.0522 148C70.278 148.006 64.562 149.157 59.2331 151.387C53.9042 153.617 49.0677 156.882 45.0018 160.994C27.6599 178.46 27.6673 205.778 45.0166 223.17L99.0544 277.363C100.307 279.573 102.725 281 105.503 281C106.644 280.989 107.767 280.71 108.78 280.185C109.794 279.66 110.671 278.903 111.34 277.977L165.99 223.17C183.339 205.771 183.339 178.46 165.975 160.964C161.911 156.86 157.079 153.602 151.755 151.377C146.431 149.152 140.722 148.004 134.954 148C124.045 148.002 113.534 152.112 105.503 159.516V159.516ZM155.554 171.416C167.073 183.028 167.081 201.166 155.569 212.719L105.503 262.928L55.4379 212.719C43.9258 201.166 43.9332 183.028 55.4232 171.445C61.0245 165.858 68.3504 162.783 76.0522 162.783C83.754 162.783 91.0504 165.858 96.6075 171.431L100.293 175.126C100.976 175.813 101.789 176.358 102.683 176.73C103.577 177.102 104.535 177.293 105.503 177.293C106.471 177.293 107.43 177.102 108.324 176.73C109.218 176.358 110.03 175.813 110.714 175.126L114.399 171.431C125.543 160.277 144.425 160.307 155.554 171.416V171.416Z" fill="black"/>
</svg>
