<svg width="30" height="30" viewBox="0 0 30 30" fill="none" xmlns="http://www.w3.org/2000/svg">
<g clip-path="url(#clip0)">
<path d="M29.2921 11.0307L19.575 10.1295L15.7151 1.1665C15.4449 0.538902 14.555 0.538902 14.2848 1.1665L10.4249 10.1296L0.707812 11.0307C0.0274231 11.0938 -0.247557 11.9401 0.265782 12.391L7.59737 18.8318L5.45179 28.3518C5.30155 29.0184 6.02143 29.5414 6.60895 29.1925L15 24.2101L23.391 29.1925C23.9785 29.5414 24.6984 29.0184 24.5482 28.3518L22.4026 18.8318L29.7342 12.391C30.2475 11.9401 29.9725 11.0938 29.2921 11.0307Z" fill="#FFDC64"/>
<path d="M15.7151 1.1665C15.4449 0.538902 14.555 0.538902 14.2848 1.1665L10.4249 10.1296L0.707812 11.0307C0.0274231 11.0938 -0.247557 11.9401 0.265782 12.391L7.59737 18.8318L5.45179 28.3518C5.30155 29.0184 6.02143 29.5414 6.60895 29.1925L8.48178 28.0805C8.741 17.4105 13.6986 9.89666 17.6237 5.59829L15.7151 1.1665Z" fill="#FFC850"/>
</g>
<defs>
<clipPath id="clip0">
<rect width="30" height="30" fill="white"/>
</clipPath>
</defs>
</svg>
